<svg width="30" height="54" viewBox="0 0 30 54" fill="none" xmlns="http://www.w3.org/2000/svg">
<path d="M0.708515 28.6822L26.1666 53.3583C26.5913 53.7702 27.1557 54 27.7426 54C28.3294 54 28.8938 53.7702 29.3186 53.3583L29.346 53.3304C29.5526 53.1307 29.7171 52.8903 29.8296 52.6239C29.942 52.3574 30 52.0705 30 51.7806C30 51.4906 29.942 51.2037 29.8296 50.9373C29.7171 50.6708 29.5526 50.4305 29.346 50.2308L5.37255 26.9954L29.346 3.76923C29.5526 3.56953 29.7171 3.32915 29.8296 3.06273C29.942 2.79629 30 2.50938 30 2.21943C30 1.92949 29.942 1.64257 29.8296 1.37614C29.7171 1.10971 29.5526 0.869331 29.346 0.669628L29.3186 0.641747C28.8938 0.229805 28.3294 3.8147e-06 27.7426 3.8147e-06C27.1557 3.8147e-06 26.5913 0.229805 26.1666 0.641747L0.708515 25.3178C0.484621 25.5348 0.306378 25.7958 0.184589 26.0849C0.0627995 26.3741 0 26.6854 0 27C0 27.3146 0.0627995 27.6259 0.184589 27.9151C0.306378 28.2042 0.484621 28.4652 0.708515 28.6822Z" fill="#C0A18F"/>
</svg>
