<svg width="614" height="521" viewBox="0 0 614 521" fill="none" xmlns="http://www.w3.org/2000/svg">
<path d="M589.838 39.6347C589.838 39.6347 589.879 62.131 584.424 70.9556C579.144 79.4964 566.314 79.1145 566.314 79.1145C566.314 79.1145 579.176 79.0869 584.424 87.7556C589.747 96.5497 589.838 118.594 589.838 118.594C589.838 118.594 590.057 96.506 595.435 87.7556C600.627 79.3061 613.197 79.1145 613.197 79.1145C613.197 79.1145 600.658 79.2767 595.435 70.9556C589.925 62.1782 589.838 39.6347 589.838 39.6347Z" fill="#FFFFFF"/>
<path d="M443.624 0.154785C443.624 0.154785 443.657 18.4331 439.207 25.6031C434.9 32.5424 424.434 32.2322 424.434 32.2322C424.434 32.2322 434.926 32.2097 439.207 39.253C443.55 46.3982 443.624 64.3096 443.624 64.3096C443.624 64.3096 443.803 46.3627 448.19 39.253C452.425 32.3878 462.68 32.2322 462.68 32.2322C462.68 32.2322 452.451 32.3639 448.19 25.6031C443.695 18.4714 443.624 0.154785 443.624 0.154785Z" fill="#FFFFFF"/>
<path d="M511.453 262.943C511.453 262.943 511.474 274.191 508.746 278.603C506.106 282.874 499.691 282.683 499.691 282.683C499.691 282.683 506.122 282.669 508.746 287.003C511.408 291.4 511.453 302.423 511.453 302.423C511.453 302.423 511.563 291.378 514.252 287.003C516.848 282.778 523.133 282.683 523.133 282.683C523.133 282.683 516.863 282.764 514.252 278.603C511.497 274.214 511.453 262.943 511.453 262.943Z" fill="#FFFFFF"/>
<path d="M24.1326 309.825C24.1326 309.825 24.1573 323.182 20.8554 328.422C17.6596 333.493 9.89453 333.266 9.89453 333.266C9.89453 333.266 17.6792 333.25 20.8554 338.397C24.0775 343.618 24.1326 356.707 24.1326 356.707C24.1326 356.707 24.2652 343.592 27.5199 338.397C30.6627 333.38 38.2707 333.266 38.2707 333.266C38.2707 333.266 30.6815 333.363 27.5199 328.422C24.1849 323.21 24.1326 309.825 24.1326 309.825Z" fill="#FFFFFF"/>
<path d="M57.4609 456.641C57.4609 456.641 57.4943 474.919 53.0438 482.089C48.7365 489.029 38.2705 488.718 38.2705 488.718C38.2705 488.718 48.7629 488.696 53.0438 495.739C57.3867 502.884 57.4609 520.796 57.4609 520.796C57.4609 520.796 57.6397 502.849 62.0265 495.739C66.2624 488.874 76.5166 488.718 76.5166 488.718C76.5166 488.718 66.2877 488.85 62.0265 482.089C57.5315 474.957 57.4609 456.641 57.4609 456.641Z" fill="#FFFFFF"/>
<path d="M388.918 388.402C309.795 443.8 228.313 479.831 160.555 493.323C126.675 500.068 96.2556 501.173 71.2903 496.267C46.3293 491.363 26.859 480.46 14.7885 463.221C2.71806 445.981 -0.865532 423.955 3.065 398.823C6.99622 373.685 18.4402 345.48 36.3693 315.951C72.2265 256.897 133.959 192.657 213.082 137.26C292.205 81.8626 373.687 45.8307 441.445 32.3396C475.326 25.5938 505.745 24.4896 530.71 29.395C555.671 34.2995 575.141 45.2017 587.212 62.4417C599.282 79.6816 602.866 101.707 598.935 126.84C595.004 151.977 583.56 180.183 565.631 209.711C529.774 268.766 468.041 333.005 388.918 388.402Z" stroke="#FFFFFF" stroke-width="1.25"/>
</svg>
