<svg width="388" height="294" viewBox="0 0 388 294" fill="none" xmlns="http://www.w3.org/2000/svg">
<path d="M387.5 147.815C387.5 150.342 386.235 152.865 383.707 155.362C381.178 157.86 377.422 160.294 372.539 162.627C362.776 167.292 348.617 171.507 331.08 175.051C296.014 182.139 247.549 186.526 194 186.526C140.451 186.526 91.986 182.139 56.9203 175.051C39.3834 171.507 25.2241 167.292 15.4611 162.627C10.5784 160.294 6.82182 157.86 4.29275 155.362C1.76475 152.865 0.5 150.342 0.5 147.815C0.5 145.288 1.76475 142.766 4.29275 140.269C6.82182 137.771 10.5784 135.337 15.4611 133.004C25.2241 128.338 39.3834 124.124 56.9203 120.579C91.986 113.492 140.451 109.104 194 109.104C247.549 109.104 296.014 113.492 331.08 120.579C348.617 124.124 362.776 128.338 372.539 133.004C377.422 135.337 381.178 137.771 383.707 140.269C386.235 142.766 387.5 145.288 387.5 147.815Z" stroke="#412D26"/>
<path d="M361.601 29.2464C362.62 31.41 362.562 34.3523 361.39 38.0705C360.218 41.786 357.956 46.199 354.677 51.2149C348.121 61.2429 337.574 73.5726 323.831 87.3887C296.351 115.015 256.165 148.511 209.787 181.321C163.409 214.13 119.643 240.027 86.3772 255.375C69.7408 263.051 55.7531 268.079 45.3881 270.021C40.2036 270.993 35.9535 271.187 32.7416 270.572C29.5274 269.958 27.4189 268.548 26.3994 266.385C25.3799 264.221 25.4381 261.279 26.6107 257.56C27.7825 253.845 30.0447 249.432 33.3236 244.416C39.8789 234.388 50.4259 222.058 64.1691 208.242C91.6495 180.616 131.836 147.12 178.213 114.31C224.591 81.5004 268.358 55.6038 301.623 40.2554C318.259 32.5795 332.247 27.5523 342.612 25.6099C347.797 24.6384 352.047 24.4442 355.259 25.0585C358.473 25.6733 360.581 27.0827 361.601 29.2464Z" stroke="#412D26"/>
<path d="M362 0.774792C362 21.6055 357.248 32.0209 346 32.0209C357.248 32.0209 362 43.9986 362 63.2671C362 43.9986 364.751 32.0209 378 32.0209C364.732 32.0209 362 21.6055 362 0.774792Z" fill="#412D26"/>
<path d="M26 231.138C26 251.969 21.2485 262.384 9.99999 262.384C21.2485 262.384 26 274.362 26 293.631C26 274.362 28.7506 262.384 42 262.384C28.7317 262.384 26 251.969 26 231.138Z" fill="#412D26"/>
</svg>
